<svg xmlns="http://www.w3.org/2000/svg" id="Layer_1" viewBox="0 0 661 247">
    <g>
        <path fill="#EA0E76" d="M406.87,209.92c-0.29,1.14-0.47,2.32-0.88,3.42c-1.35,3.59-3.75,6.43-6.64,8.98
            		c-3.77,3.33-8.52,4.02-13.17,4.96c-1.96,0.4-4,0.6-6,0.61c-11.85,0.05-23.71,0.1-35.56-0.05c-2.35-0.03-4.69-0.93-7.04-1.45
            		c-1.25-0.28-2.52-0.5-3.71-0.92c-0.92-0.33-1.75-0.93-2.85-1.54c-0.81,0.4-1.9,1.21-3.12,1.5c-3.2,0.77-6.45,1.41-9.7,1.93
            		c-2.16,0.34-4.37,0.52-6.56,0.54c-8.82,0.06-17.64-0.14-26.46,0.09c-5.39,0.14-10.52-0.89-15.7-2.01
            		c-2.23-0.48-3.91-1.72-5.62-2.99c-0.8-0.59-1.48-0.6-2.46-0.35c-6.02,1.56-12.02,3.28-18.14,4.36c-4.46,0.78-9.08,0.87-13.63,0.89
            		c-23.33,0.08-46.66,0.1-69.99-0.04c-3.11-0.02-6.2-1.18-9.32-1.62c-4.13-0.59-7.07-3.12-10.05-5.59c-0.75-0.62-1.13-0.52-2-0.16
            		c-3.29,1.37-6.62,2.74-10.06,3.69c-4.54,1.26-9.18,2.25-13.82,3.11c-2.52,0.47-5.13,0.6-7.7,0.61
            		c-21.95,0.05-43.91,0.09-65.86-0.05c-3.09-0.02-6.17-1.07-9.25-1.64c-0.64-0.12-1.35-0.05-1.92-0.3c-1.65-0.71-3.27-1.51-4.87-2.33
            		c-3.25-1.64-5.52-4.31-7.2-7.33c-1.12-2-1.66-4.34-2.27-6.58c-0.61-2.26-1.08-4.56-1.44-6.87c-0.2-1.28-0.03-2.61-0.03-3.91
            		c0-19.87-0.01-39.74,0-59.61c0.01-31.5,0.01-62.99,0.04-94.49c0-4.59,1.24-9.04,2.83-13.24c1.12-2.98,3.45-5.53,6.15-7.66
            		c3.83-3.02,8.23-4.26,12.95-4.87c0.76-0.1,1.48-0.58,2.23-0.62c1.76-0.1,3.54-0.05,5.31-0.07c8.09-0.09,16.18-0.25,24.27-0.28
            		c12.42-0.05,24.85-0.04,37.27,0.01c2.34,0.01,4.67,0.51,7,0.5c6.85-0.02,13.17,2.37,19.65,4.02c1.76,0.45,3.33,1.58,5.05,2.26
            		c3.71,1.47,6.76,3.88,9.8,6.33c0.64,0.52,1.42,0.9,2.19,1.22c0.29,0.12,0.83,0,1.08-0.21c5.03-4.27,10.56-7.62,17.14-9.11
            		c4.14-0.93,8.26-1.95,12.42-2.8c2.12-0.43,4.3-0.57,6.46-0.85c2.58-0.34,5.14-0.79,7.73-1c2.1-0.17,4.23-0.03,6.34-0.09
            		c3.02-0.07,6.03-0.28,9.05-0.29c14.37-0.02,28.73-0.1,43.1,0.09c3.47,0.05,6.98,0.84,10.36,1.72c1.01,0.26,2.12,0.11,3.01,0.62
            		c1.83,1.04,3.7,2.05,5.39,3.28c1.47,1.08,2.72,2.45,4.17,3.78c5.59-4.57,12.68-5.81,19.62-7.36c1.4-0.31,2.73-0.86,4.18-1.02
            		c1.59-0.17,3.15-0.56,4.74-0.7c1.56-0.14,3.14-0.05,4.71-0.12c1.4-0.06,2.81-0.29,4.21-0.29c14.22,0,28.45-0.04,42.67,0.07
            		c5.94,0.05,11.66,1.63,17.38,3.08c4.46,1.13,8.82,2.48,12.68,4.98c4.72,3.06,9.48,6.12,12.6,10.95c1.81,2.8,3.74,5.54,5.39,8.43
            		c0.78,1.36,1,3.02,1.49,4.54c0.16,0.49,0.35,0.98,0.53,1.47c0.12-0.02,0.24-0.04,0.36-0.06c0.08-2.18,0.12-4.36,0.24-6.53
            		c0.08-1.52,0.14-3.07,0.45-4.56c0.4-1.96,0.93-3.91,1.57-5.81c0.53-1.56,1.08-3.19,2-4.53c1.43-2.07,3.09-4.01,4.82-5.86
            		c2.94-3.13,6.95-4.07,11-5.03c3.71-0.87,7.44-1.19,11.24-1.17c8.91,0.04,17.83,0.14,26.74-0.04c5.1-0.1,10,0.75,14.93,1.81
            		c3.78,0.81,6.75,2.89,9.35,5.35c2.15,2.04,3.63,4.76,5.57,7.41c0.69-1.08,1.41-2.18,2.11-3.29c2.47-3.92,5.74-7.23,10.14-8.7
            		c4.09-1.37,8.52-2.27,12.83-2.38c12.18-0.31,24.37-0.24,36.55-0.04c3.34,0.06,6.68,1.04,10,1.74c1.6,0.33,3.12,1.01,4.7,1.46
            		c0.39,0.11,0.89-0.05,1.3-0.18c5.54-1.72,11.1-3.2,17-3.15c10.62,0.08,21.24,0.13,31.86-0.02c4.69-0.07,9.06,1.15,13.51,2.18
            		c4.89,1.14,8.33,4.21,11.37,7.98c2.16,2.68,2.66,5.83,3.68,8.88c0.79,2.37,0.82,4.85,1.54,7.22c0.29,0.94-0.17,2.07-0.17,3.12
            		c-0.01,50.99,0.01,101.99-0.07,152.98c-0.01,4.48-0.92,8.97-2.54,13.16c-1.17,3.03-3.19,5.76-6.03,7.71
            		c-2.35,1.62-4.48,3.58-7.4,4.27c-5.38,1.27-10.72,2.43-16.35,2.2c-6.63-0.27-13.27-0.07-19.91-0.06c-2.5,0-4.95-0.24-7.43-0.65
            		c-2.09-0.34-4.35,0.28-6.54,0.48c-0.56,0.05-1.12,0.16-1.68,0.16c-6.31,0.01-12.61,0-18.92,0.01c-2.88,0-5.73,0.01-8.57-0.78
            		c-1.29-0.36-2.79-0.08-4.18,0.03c-2.19,0.19-4.36,0.67-6.54,0.7c-6.45,0.1-12.9-0.08-19.34,0.07c-5.47,0.12-10.8-0.41-16.12-1.74
            		c-4.93-1.24-8.61-4-11.66-7.76c-1.12-1.37-2.06-2.88-3.17-4.45c-1.02,1.42-2.1,2.8-3.04,4.25c-2.13,3.29-5.35,5.43-8.69,7.21
            		c-2.08,1.11-4.7,1.26-7.06,1.87c-2.76,0.71-5.56,0.88-8.41,0.87c-11.85-0.05-23.71,0.04-35.56-0.09c-2.02-0.02-4.01-0.96-6.05-1.27
            		c-3.22-0.5-5.99-1.8-8.58-3.71C411.45,219.6,408.29,215.09,406.87,209.92z M268.15,54.49c-0.1-0.02-0.21-0.04-0.31-0.06
            		c-0.07-0.42-0.18-0.84-0.19-1.27c-0.02-2.5-0.07-5,0-7.5c0.06-2.1-0.02-4.16-0.78-6.14c-0.5-1.3-1.02-2.6-1.67-3.83
            		c-0.28-0.52-0.92-0.86-1.36-1.31c-0.66-0.68-1.17-1.62-1.96-2.04c-2.68-1.42-5.63-1.93-8.66-1.94
            		c-18.44-0.01-36.88-0.03-55.32,0.04c-3.58,0.01-7.18,0.22-10.73,0.68c-4.32,0.56-8.62,1.4-12.89,2.28
            		c-6.07,1.24-11.77,3.35-16.49,7.46c-2.13,1.85-4.19,3.79-5.45,6.35c-0.78,1.58-1.46,3.2-2.19,4.8c-0.11,0.25-0.27,0.47-0.41,0.7
            		c-0.25-0.2-0.63-0.35-0.73-0.61c-0.46-1.12-1.12-2.17-1.61-3.27c-0.7-1.55-2.07-2.88-3.38-4.07c-2.1-1.9-4.39-3.59-6.59-5.38
            		c-0.69-0.56-1.3-1.24-2.06-1.67c-1.39-0.78-2.87-1.44-4.32-2.11c-1.83-0.85-3.61-1.97-5.54-2.41c-2.72-0.63-5.31-1.77-8.15-1.95
            		c-2.47-0.16-4.92-0.8-7.38-0.81c-22.85-0.06-45.7-0.04-68.55,0c-1.98,0-3.99,0.16-5.92,0.53c-4.37,0.84-7.31,3.37-8.25,7.69
            		c-0.5,2.27-0.82,4.63-0.82,6.95c-0.04,47.94-0.03,95.88-0.03,143.81c0,3.01-0.13,6.03,0.04,9.03c0.16,2.94-0.41,5.86,0.67,8.87
            		c0.72,2.02,1.73,3.66,3.02,5.23c0.52,0.64,1.38,1.1,2.18,1.42c3.32,1.31,6.76,1.78,10.36,1.77c20.2-0.08,40.4-0.15,60.59,0.01
            		c7.07,0.05,13.95-0.76,20.74-2.57c6.55-1.74,12.45-4.66,17.23-9.49c1.42-1.43,2.79-2.9,4.41-4.59c0,0.84-0.06,1.38,0.01,1.91
            		c0.33,2.46,0.39,5,1.12,7.35c1.01,3.26,3.33,5.64,6.86,6.38c2.47,0.52,5.03,0.91,7.54,0.91c22.43,0.06,44.85,0.03,67.28,0
            		c3.78-0.01,7.56-0.05,11.33-0.26c5.2-0.29,10.24-1.55,15.17-3.1c2.97-0.93,5.83-2.2,8.21-4.29c1.06-0.93,2.24-1.74,3.49-2.69
            		c0.15,1.07,0.16,1.87,0.37,2.61c1.3,4.6,5.84,7.71,11.41,7.73c12.75,0.04,25.51,0.16,38.26-0.04c4.5-0.07,8.99-0.97,10.91-5.93
            		c0.64-1.66,1.42-3.3,1.77-5.02c0.34-1.69,0.3-3.47,0.3-5.22c0.02-17.13,0.01-34.27-0.01-51.4c0-1.11-0.18-2.23-0.27-3.32
            		c2.43-0.35,2.59-0.25,2.56,1.79c-0.05,4.78-0.22,9.57-0.21,14.35c0.02,6.75,0.18,13.5,0.22,20.25c0.04,6.72,0.06,13.43-0.02,20.15
            		c-0.04,3.87,0.84,7.44,3.3,10.5c0.84,1.04,1.85,2.41,3.01,2.67c3.15,0.7,6.43,1.21,9.66,1.22c12.26,0.05,24.53-0.12,36.79-0.21
            		c4.27-0.03,9.26-3.4,10.52-7.41c0.59-1.88,0.79-3.94,0.79-5.92c0.04-42.98,0.01-85.96,0.02-128.93c0-5.26-0.46-10.44-1.71-15.6
            		c-1.95-7.98-5.83-14.59-12.94-19.22c-2.95-1.92-6.05-3.54-9.39-4.65c-1.84-0.61-3.6-1.51-5.61-1.63c-1.63-0.1-2.99-1.17-4.78-1.09
            		c-2.09,0.1-4.21-0.56-6.32-0.56c-15.88-0.05-31.76,0.02-47.64-0.02c-7.52-0.02-14.63,1.73-21.55,4.43
            		c-0.49,0.19-0.92,0.54-1.4,0.83c-0.34,0-0.91-0.17-1.2,0.03c-1.34,0.95-2.55,2.07-3.89,3.02c-5.27,3.76-8.64,8.84-10.83,14.75
            		C268.61,53.84,268.35,54.16,268.15,54.49z M570.32,41.2c-0.15-0.04-0.31-0.08-0.46-0.12c-0.12-0.62-0.15-1.27-0.37-1.86
            		c-1.05-2.81-2.29-5.54-5.38-6.76c-1.94-0.77-3.96-1.4-6-1.87c-1.27-0.29-2.63-0.18-3.96-0.18c-12.42-0.01-24.84-0.04-37.26,0.03
            		c-3.48,0.02-6.95,0.38-9.51,3.19c-2.51,2.74-3.83,6.07-3.84,9.62c-0.09,33.17-0.05,66.34-0.05,99.5c0,19.08,0,38.17-0.01,57.25
            		c0,1.05-0.38,2.12-0.21,3.13c0.3,1.79,0.84,3.55,1.34,5.31c0.68,2.4,2.42,3.93,4.59,5.01c3.05,1.52,6.33,1.98,9.73,1.97
            		c8.96-0.03,17.92,0.02,26.89-0.04c1.53-0.01,3.05-0.48,4.59-0.63c1.31-0.13,2.64-0.21,3.94-0.1c1.72,0.14,3.41,0.71,5.12,0.72
            		c7.87,0.08,15.74,0.05,23.61,0.02c0.84,0,1.67-0.28,2.52-0.32c1.76-0.1,3.52-0.2,5.27-0.15c1.2,0.03,2.39,0.46,3.59,0.46
            		c9.77,0.04,19.54,0.04,29.3,0.02c3.8-0.01,7.16-1.24,9.89-3.85c1.39-1.33,3.02-2.51,3.02-4.82c0-2.22,0.56-4.45,0.56-6.67
            		c0.03-49.51,0.04-99.02-0.01-148.54c0-4.18,0.36-8.37-0.79-12.54c-0.83-3-2.33-5.22-5.13-6.53c-1.23-0.58-2.66-0.78-4-1.12
            		c-1.31-0.34-2.64-0.92-3.96-0.93c-12.71-0.06-25.41-0.04-38.12,0.02c-1.88,0.01-3.78,0.19-5.65,0.49c-3.57,0.57-7.54,3.24-8.16,7.7
            		C571.3,39.52,570.7,40.35,570.32,41.2z M483.01,123.41c0-25.84,0.01-51.69-0.02-77.53c0-1.7-0.15-3.43-0.49-5.09
            		c-1.55-7.49-5.78-10.18-12.58-10.31c-12.89-0.26-25.79-0.12-38.68-0.02c-4.6,0.04-8.75,1.05-10.95,5.81
            		c-1.1,2.36-2.12,4.69-2.12,7.28c-0.03,52.01-0.02,104.02-0.02,156.03c0,0.46,0.07,0.94-0.03,1.39c-0.71,3.27,0.36,6.33,1.89,9.01
            		c2.2,3.88,6.23,5.58,10.55,5.65c13.46,0.2,26.93,0.2,40.39,0.02c4.68-0.06,8.59-2.07,10.6-6.55c1-2.22,1.46-4.6,1.47-7.04
            		C483.01,175.83,483.01,149.62,483.01,123.41z"/>
        <path fill="#FEFEFF" d="M268.15,54.49c0.2-0.34,0.46-0.65,0.59-1.01c2.2-5.91,5.56-10.99,10.83-14.75
            		c1.34-0.95,2.55-2.07,3.89-3.02c0.29-0.2,0.86-0.03,1.2-0.03c0.48-0.29,0.91-0.64,1.4-0.83c6.92-2.71,14.03-4.45,21.55-4.43
            		c15.88,0.04,31.76-0.02,47.64,0.02c2.11,0.01,4.23,0.66,6.32,0.56c1.79-0.08,3.14,0.99,4.78,1.09c2.01,0.12,3.77,1.02,5.61,1.63
            		c3.34,1.1,6.45,2.73,9.39,4.65c7.11,4.63,10.99,11.23,12.94,19.22c1.26,5.15,1.71,10.33,1.71,15.6c0,42.98,0.02,85.96-0.02,128.93
            		c0,1.98-0.21,4.04-0.79,5.92c-1.25,4.02-6.25,7.38-10.52,7.41c-12.26,0.09-24.53,0.26-36.79,0.21c-3.23-0.01-6.5-0.52-9.66-1.22
            		c-1.16-0.26-2.17-1.63-3.01-2.67c-2.47-3.06-3.35-6.63-3.3-10.5c0.07-6.71,0.06-13.43,0.02-20.15c-0.04-6.75-0.21-13.5-0.22-20.25
            		c-0.01-4.78,0.16-9.56,0.21-14.35c0.02-2.05-0.13-2.14-2.56-1.79c0.09,1.1,0.27,2.21,0.27,3.32c0.02,17.13,0.02,34.27,0.01,51.4
            		c0,1.74,0.05,3.53-0.3,5.22c-0.35,1.72-1.13,3.36-1.77,5.02c-1.92,4.97-6.41,5.86-10.91,5.93c-12.75,0.2-25.51,0.08-38.26,0.04
            		c-5.57-0.02-10.11-3.13-11.41-7.73c-0.21-0.74-0.22-1.54-0.37-2.61c-1.25,0.96-2.43,1.76-3.49,2.69c-2.39,2.09-5.25,3.36-8.21,4.29
            		c-4.93,1.55-9.97,2.81-15.17,3.1c-3.77,0.21-7.56,0.25-11.33,0.26c-22.43,0.03-44.85,0.06-67.28,0c-2.52-0.01-5.08-0.39-7.54-0.91
            		c-3.53-0.75-5.85-3.12-6.86-6.38c-0.73-2.35-0.79-4.89-1.12-7.35c-0.07-0.53-0.01-1.07-0.01-1.91c-1.62,1.69-2.99,3.16-4.41,4.59
            		c-4.78,4.83-10.67,7.74-17.23,9.49c-6.79,1.8-13.66,2.62-20.74,2.57c-20.2-0.15-40.4-0.08-60.59-0.01
            		c-3.6,0.01-7.05-0.46-10.36-1.77c-0.8-0.32-1.66-0.78-2.18-1.42c-1.28-1.57-2.3-3.21-3.02-5.23c-1.07-3.01-0.5-5.93-0.67-8.87
            		c-0.17-3-0.04-6.02-0.04-9.03c0-47.94-0.01-95.88,0.03-143.81c0-2.32,0.32-4.68,0.82-6.95c0.95-4.32,3.88-6.85,8.25-7.69
            		c1.94-0.37,3.95-0.52,5.92-0.53c22.85-0.04,45.7-0.06,68.55,0c2.46,0.01,4.91,0.65,7.38,0.81c2.85,0.18,5.43,1.33,8.15,1.95
            		c1.93,0.44,3.71,1.57,5.54,2.41c1.46,0.67,2.93,1.33,4.32,2.11c0.76,0.43,1.37,1.11,2.06,1.67c2.2,1.79,4.49,3.48,6.59,5.38
            		c1.31,1.18,2.68,2.52,3.38,4.07c0.5,1.1,1.15,2.15,1.61,3.27c0.11,0.26,0.48,0.41,0.73,0.61c0.14-0.23,0.3-0.46,0.41-0.7
            		c0.73-1.6,1.41-3.22,2.19-4.8c1.26-2.56,3.32-4.5,5.45-6.35c4.72-4.11,10.42-6.22,16.49-7.46c4.27-0.87,8.57-1.71,12.89-2.28
            		c3.55-0.46,7.15-0.66,10.73-0.68c18.44-0.07,36.88-0.05,55.32-0.04c3.03,0,5.98,0.52,8.66,1.94c0.8,0.42,1.3,1.36,1.96,2.04
            		c0.44,0.45,1.08,0.79,1.36,1.31c0.65,1.23,1.17,2.53,1.67,3.83c0.76,1.98,0.84,4.04,0.78,6.14c-0.07,2.5-0.02,5,0,7.5
            		c0,0.42,0.12,0.85,0.19,1.27C267.94,54.45,268.05,54.47,268.15,54.49z M37.8,204.55c0.54,0.02,0.92,0.06,1.29,0.06
            		c21.95-0.01,43.9-0.02,65.86-0.04c4.33,0,8.59-0.42,12.83-1.34c6.4-1.38,12.02-4.07,16.69-8.63c4.69-4.58,6.89-10.45,8.77-16.43
            		c0.62-1.98,0.77-4.13,0.9-6.22c0.28-4.57,0.5-9.14,0.58-13.72c0.1-5.42,0.08-10.84,0.01-16.26c-0.26-22.05,0.55-44.11-0.5-66.16
            		c-0.26-5.54-1.67-10.68-3.84-15.7c-0.48-1.12-1.24-2.12-1.84-3.2c-1.83-3.34-4.52-5.91-7.51-8.26c-3.7-2.91-8-4.62-12.49-5.81
            		c-2.85-0.75-5.85-1.33-8.79-1.34c-23.42-0.12-46.84-0.09-70.26-0.1c-0.55,0-1.1,0.06-1.69,0.09C37.8,95.89,37.8,150.15,37.8,204.55
            		z M343.3,204.51c0.54,0.05,0.91,0.11,1.27,0.11c12.75-0.01,25.51-0.05,38.26-0.02c1.34,0,1.77-0.29,1.77-1.67
            		c-0.04-42.38-0.03-84.75-0.04-127.13c0-0.54-0.14-1.09-0.17-1.63c-0.11-1.96-0.21-3.92-0.29-5.88c-0.06-1.39-0.01-2.79-0.11-4.17
            		c-0.11-1.43-0.98-2.76-0.59-4.28c0.1-0.39-0.07-0.93-0.28-1.3c-0.56-0.98-1.24-1.89-1.82-2.86c-1.06-1.76-1.89-3.68-3.15-5.3
            		c-2.27-2.93-5.59-4.66-8.93-6.04c-3.06-1.27-6.34-2.2-9.75-2.38c-1.92-0.1-3.83-0.49-5.75-0.49c-13.89-0.06-27.78-0.12-41.67-0.03
            		c-4.07,0.03-8.13,0.55-12.19,0.85c-0.14,0.01-0.28,0.05-0.41,0.1c-3.17,1.06-6.45,1.87-9.46,3.26c-2.11,0.97-3.95,2.6-5.71,4.15
            		c-2.46,2.17-4.07,4.95-5.11,8.02c-0.16,0.47,0.2,1.21-0.06,1.52c-1.57,1.89-1.63,4.26-1.68,6.37c-0.23,9.07-0.12,18.15-0.12,27.22
            		c0,36.72,0,73.44-0.02,110.17c0,1.09,0.25,1.56,1.49,1.55c12.56-0.05,25.13-0.07,37.69-0.03c1.38,0,1.86-0.28,1.86-1.75
            		c-0.05-22.6-0.02-45.2-0.05-67.8c0-1.21,0.22-1.67,1.61-1.66c7.25,0.08,14.51,0.07,21.76,0.01c1.3-0.01,1.71,0.33,1.7,1.63
            		c-0.04,17.13-0.03,34.27-0.04,51.4C343.3,192.41,343.3,198.38,343.3,204.51z M197.13,204.59
            		C197.13,204.58,197.13,204.58,197.13,204.59c3.94-0.01,7.87,0.06,11.81-0.02c10.77-0.21,21.56,0.59,32.32-0.56
            		c5.08-0.54,9.94-1.82,14.33-4.45c3.39-2.03,6.17-4.57,7.56-8.43c1.03-2.83,1.83-5.7,1.86-8.67c0.1-11.35,0.08-22.69,0.05-34.04
            		c-0.02-5.36-0.15-10.72-0.28-16.07c-0.04-1.66-0.03-3.37-0.41-4.97c-0.31-1.33-1.2-2.52-1.77-3.8
            		c-2.87-6.37-7.89-10.36-14.48-12.68c-5.64-1.99-11.55-2.27-17.41-2.38c-10.33-0.21-20.67-0.07-31.01-0.05
            		c-1.01,0-1.52-0.12-1.51-1.33c0.06-10.14,0.06-20.29,0.02-30.43c0-1.26,0.37-1.65,1.68-1.64c9.2,0.06,18.4,0.04,27.59,0.03
            		c9.1,0,18.21-0.03,27.31-0.03c0.95,0,1.49-0.16,1.48-1.28c-0.03-10.1,0-20.19-0.01-30.29c0-1.75-0.35-2.05-2.14-2.05
            		c-9.2-0.02-18.4-0.08-27.59-0.04c-10.7,0.05-21.39,0.19-32.09,0.31c-1.4,0.02-2.82,0.11-4.2,0.31c-2.89,0.4-5.75,1.02-8.65,1.32
            		c-4.58,0.48-8.89,1.72-12.9,3.92c-1.04,0.57-2.14,1.17-2.96,2c-1.76,1.78-3.69,3.53-4.91,5.64c-1.07,1.86-1.26,4.21-1.86,6.33
            		c-0.22,0.77-0.75,1.52-0.76,2.28c-0.03,2.48,0.17,4.97,0.17,7.46c0.03,13.9,0,27.79,0.07,41.69c0.01,1.95,0.45,3.89,0.74,5.83
            		c0.29,1.89,0.86,3.65,1.74,5.41c1.59,3.17,3.68,6.02,6.63,7.89c5.52,3.5,11.77,5.12,18.33,5.58c2.09,0.15,4.18,0.47,6.28,0.48
            		c10.71,0.05,21.43,0.02,32.15,0.03c1.79,0,1.78,0,1.78,1.8c0,9.72,0,19.45,0,29.17c0,1.84,0.02,1.84-1.88,1.84
            		c-18.25,0-36.51-0.01-54.76-0.01c-3.7,0-7.4,0.02-11.09-0.01c-0.99-0.01-1.42,0.23-1.42,1.32c0,4.47-0.13,8.95-0.17,13.42
            		c-0.04,5.77-0.03,11.54-0.05,17.31c-0.01,1.57,0.26,1.84,1.87,1.84C171.43,204.58,184.28,204.59,197.13,204.59z M209.54,97.32
            		c0.7,0,1.21,0,1.73,0c8.42,0.09,16.84,0.18,25.25,0.27c6.06,0.06,11.75,1.85,17.37,3.77c4.54,1.55,8.4,4.28,11.96,7.48
            		c0-9.38,0-18.69,0-28.26c-0.53,0.55-0.9,0.89-1.22,1.28c-1.68,2.01-3.79,3.25-6.41,3.79c-2.77,0.57-5.52,0.67-8.36,0.64
            		c-13.44-0.15-26.89-0.07-40.31-0.07C209.54,89.81,209.54,93.45,209.54,97.32z M156.05,137.54c0,7.12,0,14.38,0,21.64
            		c0,0.65,0.11,0.99,1.02,0.76c1.16-0.29,2.41-0.34,3.62-0.34c17.51,0.06,35.03,0.14,52.54,0.25c1.15,0.01,1.58-0.31,1.53-1.51
            		c-0.1-2.59-0.09-5.18,0.01-7.77c0.05-1.21-0.25-1.61-1.55-1.59c-5.4,0.07-10.8,0.01-16.2,0.04c-1.4,0.01-2.82,0.34-4.2,0.23
            		c-3.35-0.28-6.7-0.6-10.01-1.14c-5.83-0.96-11.7-1.99-17.04-4.52C162.38,141.96,159.35,139.62,156.05,137.54z"/>
        <path fill="#FEFEFF" d="M570.32,41.2c0.38-0.85,0.98-1.68,1.11-2.57c0.62-4.46,4.59-7.13,8.16-7.7c1.86-0.3,3.76-0.48,5.65-0.49
            		c12.71-0.05,25.41-0.08,38.12-0.02c1.32,0.01,2.64,0.59,3.96,0.93c1.34,0.35,2.77,0.55,4,1.12c2.8,1.31,4.3,3.53,5.13,6.53
            		c1.15,4.17,0.78,8.36,0.79,12.54c0.05,49.51,0.04,99.02,0.01,148.54c0,2.22-0.56,4.45-0.56,6.67c0,2.31-1.63,3.49-3.02,4.82
            		c-2.72,2.6-6.09,3.84-9.89,3.85c-9.77,0.02-19.54,0.02-29.3-0.02c-1.2-0.01-2.39-0.43-3.59-0.46c-1.76-0.05-3.52,0.06-5.27,0.15
            		c-0.84,0.05-1.68,0.32-2.52,0.32c-7.87,0.03-15.74,0.06-23.61-0.02c-1.71-0.02-3.4-0.58-5.12-0.72c-1.3-0.11-2.64-0.03-3.94,0.1
            		c-1.54,0.15-3.06,0.62-4.59,0.63c-8.96,0.06-17.92,0.01-26.89,0.04c-3.4,0.01-6.68-0.45-9.73-1.97c-2.17-1.08-3.91-2.62-4.59-5.01
            		c-0.5-1.76-1.05-3.51-1.34-5.31c-0.17-1.01,0.21-2.08,0.21-3.13c0.02-19.08,0.01-38.17,0.01-57.25c0-33.17-0.04-66.34,0.05-99.5
            		c0.01-3.55,1.33-6.87,3.84-9.62c2.56-2.81,6.03-3.17,9.51-3.19c12.42-0.07,24.84-0.04,37.26-0.03c1.32,0,2.69-0.1,3.96,0.18
            		c2.04,0.46,4.06,1.1,6,1.87c3.08,1.22,4.33,3.95,5.38,6.76c0.22,0.59,0.25,1.23,0.37,1.86C570.02,41.12,570.17,41.16,570.32,41.2z
            		 M570.74,122.91c-0.24,0-0.47,0.01-0.71,0.01c0.78-2.43-0.79-4.44-0.87-6.8c-0.1-3.35-1.08-6.67-1.31-10.03
            		c-0.35-5.14-1.84-10.11-2.15-15.26c-0.16-2.66-0.85-5.28-1.34-7.92c-0.1-0.53-0.54-1.02-0.58-1.55c-0.12-1.7,0.04-3.44-0.2-5.12
            		c-0.5-3.57-1.25-7.1-1.76-10.67c-0.47-3.32-0.58-6.69-1.2-9.98c-0.4-2.17-0.67-4.33-0.85-6.51c-0.05-0.62,0.19-1.28,0.08-1.88
            		c-0.22-1.25-0.72-2.45-0.87-3.7c-0.23-1.86-0.32-2.04-2.23-2.05c-13.18-0.03-26.36-0.05-39.54-0.08c-2.34,0-2.34,0.01-2.34,2.28
            		c0,52.99,0,105.98-0.01,158.97c0,1.16-0.31,2.44,1.67,1.68c0.29-0.11,0.66-0.02,0.99-0.02c9.82,0,19.63-0.01,29.45,0.02
            		c1.04,0,1.5-0.19,1.49-1.36c-0.05-12.78-0.04-25.57-0.04-38.35c0-0.35,0.07-0.71,0.11-1.13c1.43-0.12,2.76-0.23,4.07-0.33
            		c0.17,1.25,0.35,2.24,0.43,3.24c0.21,2.6,0.32,5.22,0.57,7.82c0.43,4.61,0.96,9.21,1.41,13.82c0.48,4.93,0.94,9.86,1.33,14.8
            		c0.1,1.22,0.59,1.51,1.77,1.51c7.92-0.05,15.84-0.02,23.76-0.02c0.89,0,1.77,0,2.42,0c0.25-2.14,0.44-3.96,0.69-5.77
            		c0.41-2.87,0.89-5.73,1.3-8.6c0.44-3.11,0.85-6.22,1.26-9.33c0.26-1.96,0.47-3.92,0.75-5.87c0.56-3.8,1.14-7.59,1.77-11.38
            		c0.09-0.53-0.06-1.42,1.02-1.35c1.07,0.06,1.14,0.8,1.18,1.57c0.01,0.28,0.01,0.56,0.01,0.83c0,12.74,0,25.48,0,38.21
            		c0,0.58-0.04,1.15-0.06,1.73c0.61-0.01,1.23-0.03,1.84-0.04c0.28-0.01,0.57,0,0.85,0c9.15,0,18.3,0,27.45,0
            		c3.46,0,3.47,0,3.47-3.41c0.01-52.43,0.01-104.86,0.02-157.3c0-2.14,0-2.14-2.12-2.15c-12.42-0.02-24.85-0.04-37.27-0.05
            		c-1.19,0-2.38-0.04-3.55,0.07c-0.39,0.04-0.99,0.47-1.06,0.81c-0.3,1.52-0.44,3.07-0.63,4.6c-0.32,2.49-0.64,4.98-0.98,7.46
            		c-0.42,3.12-0.86,6.24-1.3,9.36c-0.35,2.43-0.72,4.85-1.08,7.27c-0.31,2.11-0.65,4.22-0.92,6.34c-0.18,1.36-0.19,2.75-0.39,4.11
            		c-0.5,3.46-1.12,6.91-1.6,10.38c-0.53,3.8-0.93,7.62-1.44,11.43c-0.64,4.75-1.33,9.5-2,14.25
            		C571.23,119.3,570.99,121.1,570.74,122.91z"/>
        <path fill="#FEFEFF" d="M483.01,123.41c0,26.21,0,52.43,0,78.64c0,2.44-0.47,4.81-1.47,7.04c-2.01,4.48-5.92,6.49-10.6,6.55
            		c-13.46,0.18-26.93,0.18-40.39-0.02c-4.32-0.06-8.35-1.77-10.55-5.65c-1.52-2.68-2.6-5.74-1.89-9.01c0.1-0.44,0.03-0.92,0.03-1.39
            		c0-52.01-0.01-104.02,0.02-156.03c0-2.58,1.03-4.91,2.12-7.28c2.2-4.75,6.35-5.77,10.95-5.81c12.89-0.1,25.79-0.23,38.68,0.02
            		c6.8,0.13,11.03,2.83,12.58,10.31c0.34,1.66,0.49,3.39,0.49,5.09C483.02,71.72,483.01,97.56,483.01,123.41z M429.52,41.38
            		c0,0.82,0,1.41,0,2c0,51.73,0,103.45-0.01,155.18c0,1.32-0.15,2.64-0.24,3.96c-0.11,1.58,0.37,2.05,2.1,2.05
            		c12.89,0,25.79,0,38.68-0.01c0.41,0,0.82-0.05,1.57-0.1c0-2.24,0-4.39,0-6.55c0-27.88,0-55.76,0-83.63c0-23.66,0-47.33,0-70.99
            		c0-1.84,0-1.84-1.91-1.84c-12.23-0.02-24.46-0.05-36.69-0.07C431.95,41.38,430.86,41.38,429.52,41.38z"/>
        <path fill="#EA0E76" d="M37.8,204.55c0-54.39,0-108.66,0-163.05c0.59-0.03,1.14-0.09,1.69-0.09c23.42,0.01,46.84-0.02,70.26,0.1
            		c2.94,0.02,5.94,0.59,8.79,1.34c4.49,1.19,8.79,2.89,12.49,5.81c2.98,2.35,5.67,4.92,7.51,8.26c0.59,1.08,1.35,2.08,1.84,3.2
            		c2.17,5.02,3.58,10.16,3.84,15.7c1.04,22.05,0.24,44.11,0.5,66.16c0.06,5.42,0.08,10.84-0.01,16.26c-0.08,4.57-0.3,9.15-0.58,13.72
            		c-0.13,2.09-0.28,4.24-0.9,6.22c-1.88,5.98-4.08,11.85-8.77,16.43c-4.66,4.56-10.29,7.25-16.69,8.63
            		c-4.24,0.91-8.51,1.34-12.83,1.34c-21.95,0.01-43.9,0.03-65.86,0.04C38.72,204.6,38.34,204.57,37.8,204.55z M78.16,170.85
            		c0.47,0.03,1.07,0.1,1.68,0.1c6.78,0.01,13.56,0.01,20.34,0c1.72,0,1.83-0.12,1.84-1.82c0.01-30.84,0.01-61.69,0.05-92.53
            		c0-1.18-0.39-1.53-1.54-1.52c-4.08,0.04-8.16,0.05-12.23,0.01c-2.97-0.03-5.93-0.18-8.9-0.2c-0.4,0-1.02,0.39-1.15,0.74
            		c-0.24,0.66-0.26,1.41-0.25,2.13c0.03,4.23,0.14,8.47,0.13,12.7c-0.02,5.35-0.2,10.7-0.19,16.05c0.01,6.19,0.2,12.38,0.22,18.57
            		c0.04,10.47,0.01,20.93,0.01,31.4C78.16,161.21,78.16,165.92,78.16,170.85z"/>
        <path fill="#EA0E76" d="M343.3,204.51c0-6.13,0-12.1,0-18.08c0-17.13-0.01-34.27,0.04-51.4c0-1.3-0.4-1.64-1.7-1.63
            		c-7.25,0.06-14.51,0.07-21.76-0.01c-1.39-0.01-1.62,0.45-1.61,1.66c0.03,22.6,0,45.2,0.05,67.8c0,1.47-0.47,1.75-1.86,1.75
            		c-12.56-0.03-25.13-0.02-37.69,0.03c-1.24,0.01-1.49-0.46-1.49-1.55c0.02-36.72,0.02-73.44,0.02-110.17
            		c0-9.08-0.11-18.15,0.12-27.22c0.05-2.1,0.11-4.48,1.68-6.37c0.26-0.31-0.1-1.05,0.06-1.52c1.04-3.07,2.64-5.85,5.11-8.02
            		c1.76-1.55,3.61-3.18,5.71-4.15c3.01-1.39,6.29-2.2,9.46-3.26c0.13-0.04,0.27-0.09,0.41-0.1c4.06-0.3,8.13-0.82,12.19-0.85
            		c13.89-0.09,27.78-0.03,41.67,0.03c1.92,0.01,3.83,0.4,5.75,0.49c3.41,0.17,6.69,1.11,9.75,2.38c3.33,1.38,6.66,3.11,8.93,6.04
            		c1.25,1.61,2.09,3.53,3.15,5.3c0.58,0.97,1.26,1.88,1.82,2.86c0.21,0.38,0.38,0.91,0.28,1.3c-0.39,1.53,0.49,2.85,0.59,4.28
            		c0.1,1.39,0.06,2.78,0.11,4.17c0.08,1.96,0.18,3.92,0.29,5.88c0.03,0.54,0.17,1.09,0.17,1.63c0.01,42.38,0,84.76,0.04,127.13
            		c0,1.38-0.43,1.67-1.77,1.67c-12.75-0.03-25.51,0.01-38.26,0.02C344.2,204.62,343.84,204.56,343.3,204.51z M317.9,110.54
            		c0.79,0.05,1.29,0.12,1.8,0.12c7.29,0.01,14.59-0.02,21.88,0.05c1.39,0.01,1.76-0.43,1.75-1.75c-0.05-10.69-0.03-21.37-0.03-32.06
            		c0-1.79,0.01-1.8-1.79-1.8c-7.2-0.01-14.4,0.03-21.6-0.04c-1.34-0.01-1.66,0.37-1.66,1.63c0.05,9.25,0.04,18.51,0,27.76
            		C318.26,106.41,318.04,108.38,317.9,110.54z"/>
        <path fill="#EA0E76" d="M197.13,204.59c-12.85,0-25.7,0-38.55,0c-1.61,0-1.88-0.27-1.87-1.84c0.02-5.77,0.01-11.54,0.05-17.31
            		c0.03-4.48,0.16-8.95,0.17-13.42c0-1.09,0.43-1.33,1.42-1.32c3.7,0.03,7.4,0.01,11.09,0.01c18.25,0,36.51,0.01,54.76,0.01
            		c1.9,0,1.88,0,1.88-1.84c-0.01-9.72,0-19.45,0-29.17c0-1.8,0.01-1.8-1.78-1.8c-10.72,0-21.43,0.02-32.15-0.03
            		c-2.09-0.01-4.18-0.34-6.28-0.48c-6.56-0.46-12.81-2.08-18.33-5.58c-2.95-1.87-5.03-4.72-6.63-7.89c-0.88-1.75-1.45-3.52-1.74-5.41
            		c-0.3-1.94-0.73-3.89-0.74-5.83c-0.07-13.89-0.04-27.79-0.07-41.69c-0.01-2.49-0.21-4.97-0.17-7.46c0.01-0.76,0.54-1.51,0.76-2.28
            		c0.61-2.12,0.79-4.47,1.86-6.33c1.22-2.11,3.15-3.86,4.91-5.64c0.82-0.83,1.91-1.43,2.96-2c4.01-2.2,8.32-3.44,12.9-3.92
            		c2.9-0.3,5.76-0.92,8.65-1.32c1.39-0.19,2.8-0.29,4.2-0.31c10.7-0.13,21.39-0.26,32.09-0.31c9.2-0.04,18.39,0.02,27.59,0.04
            		c1.78,0,2.14,0.31,2.14,2.05c0.01,10.1-0.02,20.19,0.01,30.29c0,1.12-0.53,1.29-1.48,1.28c-9.1-0.01-18.21,0.02-27.31,0.03
            		c-9.2,0-18.4,0.02-27.59-0.03c-1.32-0.01-1.69,0.38-1.68,1.64c0.04,10.14,0.03,20.29-0.02,30.43c-0.01,1.21,0.5,1.33,1.51,1.33
            		c10.34-0.02,20.67-0.16,31.01,0.05c5.87,0.12,11.77,0.4,17.41,2.38c6.6,2.32,11.61,6.31,14.48,12.68c0.57,1.28,1.46,2.47,1.77,3.8
            		c0.38,1.6,0.37,3.31,0.41,4.97c0.13,5.36,0.27,10.72,0.28,16.07c0.04,11.35,0.06,22.7-0.05,34.04c-0.03,2.96-0.83,5.83-1.86,8.67
            		c-1.39,3.85-4.18,6.39-7.56,8.43c-4.39,2.63-9.25,3.91-14.33,4.45c-10.75,1.15-21.55,0.35-32.32,0.56
            		C205,204.64,201.07,204.58,197.13,204.59C197.13,204.58,197.13,204.58,197.13,204.59z"/>
        <path fill="#EA0E76" d="M209.54,97.32c0-3.87,0-7.5,0-11.09c13.42,0,26.87-0.08,40.31,0.07c2.84,0.03,5.59-0.07,8.36-0.64
            		c2.62-0.54,4.74-1.78,6.41-3.79c0.32-0.38,0.69-0.72,1.22-1.28c0,9.57,0,18.87,0,28.26c-3.56-3.2-7.42-5.93-11.96-7.48
            		c-5.62-1.92-11.31-3.7-17.37-3.77c-8.42-0.09-16.84-0.18-25.25-0.27C210.76,97.31,210.25,97.32,209.54,97.32z"/>
        <path fill="#EA0E76" d="M156.05,137.54c3.3,2.08,6.33,4.42,9.73,6.03c5.34,2.54,11.21,3.57,17.04,4.52
            		c3.31,0.54,6.66,0.86,10.01,1.14c1.38,0.11,2.8-0.22,4.2-0.23c5.4-0.03,10.8,0.03,16.2-0.04c1.3-0.02,1.6,0.38,1.55,1.59
            		c-0.1,2.59-0.11,5.18-0.01,7.77c0.05,1.21-0.38,1.52-1.53,1.51c-17.51-0.1-35.03-0.19-52.54-0.25c-1.21,0-2.46,0.05-3.62,0.34
            		c-0.91,0.23-1.02-0.11-1.02-0.76C156.05,151.92,156.05,144.67,156.05,137.54z"/>
        <path fill="#EA0E76" d="M570.74,122.91c0.25-1.81,0.49-3.61,0.75-5.42c0.67-4.75,1.36-9.5,2-14.25c0.51-3.81,0.91-7.63,1.44-11.43
            		c0.48-3.47,1.09-6.92,1.6-10.38c0.2-1.36,0.21-2.74,0.39-4.11c0.27-2.12,0.61-4.23,0.92-6.34c0.36-2.42,0.73-4.85,1.08-7.27
            		c0.45-3.12,0.88-6.24,1.3-9.36c0.34-2.49,0.65-4.97,0.98-7.46c0.2-1.54,0.34-3.08,0.63-4.6c0.07-0.34,0.67-0.77,1.06-0.81
            		c1.17-0.12,2.37-0.08,3.55-0.07c12.42,0.01,24.85,0.03,37.27,0.05c2.12,0,2.12,0.01,2.12,2.15c-0.01,52.43-0.01,104.86-0.02,157.3
            		c0,3.41-0.01,3.41-3.47,3.41c-9.15,0-18.3,0-27.45,0c-0.28,0-0.57,0-0.85,0c-0.61,0.01-1.23,0.03-1.84,0.04
            		c0.02-0.58,0.06-1.15,0.06-1.73c0-12.74,0-25.48,0-38.21c0-0.28,0.01-0.56-0.01-0.83c-0.04-0.77-0.11-1.5-1.18-1.57
            		c-1.08-0.06-0.93,0.82-1.02,1.35c-0.63,3.79-1.21,7.58-1.77,11.38c-0.29,1.95-0.5,3.91-0.75,5.87c-0.41,3.11-0.81,6.23-1.26,9.33
            		c-0.41,2.87-0.89,5.73-1.3,8.6c-0.26,1.81-0.44,3.63-0.69,5.77c-0.65,0-1.54,0-2.42,0c-7.92,0-15.84-0.02-23.76,0.02
            		c-1.18,0.01-1.67-0.28-1.77-1.51c-0.39-4.94-0.85-9.87-1.33-14.8c-0.45-4.61-0.97-9.21-1.41-13.82c-0.25-2.6-0.36-5.21-0.57-7.82
            		c-0.08-1-0.26-1.99-0.43-3.24c-1.31,0.11-2.64,0.22-4.07,0.33c-0.04,0.42-0.11,0.77-0.11,1.13c0,12.78-0.01,25.57,0.04,38.35
            		c0,1.18-0.45,1.37-1.49,1.36c-9.82-0.03-19.63-0.02-29.45-0.02c-0.33,0-0.7-0.09-0.99,0.02c-1.98,0.75-1.67-0.53-1.67-1.68
            		c0.01-52.99,0.01-105.98,0.01-158.97c0-2.28,0-2.29,2.34-2.28c13.18,0.02,26.36,0.05,39.54,0.08c1.91,0,2,0.19,2.23,2.05
            		c0.15,1.25,0.65,2.46,0.87,3.7c0.11,0.6-0.13,1.26-0.08,1.88c0.18,2.18,0.45,4.34,0.85,6.51c0.61,3.29,0.72,6.66,1.2,9.98
            		c0.51,3.57,1.26,7.1,1.76,10.67c0.24,1.68,0.08,3.41,0.2,5.12c0.04,0.53,0.48,1.02,0.58,1.55c0.49,2.63,1.18,5.26,1.34,7.92
            		c0.32,5.15,1.81,10.12,2.15,15.26c0.23,3.36,1.21,6.68,1.31,10.03c0.07,2.36,1.64,4.37,0.87,6.8
            		C570.26,122.92,570.5,122.91,570.74,122.91z"/>
        <path fill="#EA0E76" d="M429.52,41.38c1.34,0,2.42,0,3.51,0c12.23,0.02,24.46,0.05,36.69,0.07c1.9,0,1.91,0,1.91,1.84
            		c0,23.66,0,47.33,0,70.99c0,27.88,0,55.76,0,83.63c0,2.15,0,4.3,0,6.55c-0.75,0.05-1.16,0.1-1.57,0.1
            		c-12.89,0.01-25.79,0.01-38.68,0.01c-1.73,0-2.2-0.47-2.1-2.05c0.09-1.32,0.24-2.64,0.24-3.96c0.01-51.73,0.01-103.45,0.01-155.18
            		C429.52,42.79,429.52,42.2,429.52,41.38z"/>
        <path fill="#FEFEFF" d="M78.16,170.85c0-4.94,0-9.65,0-14.36c0-10.47,0.03-20.93-0.01-31.4c-0.02-6.19-0.21-12.38-0.22-18.57
            		c-0.01-5.35,0.17-10.7,0.19-16.05c0.01-4.23-0.1-8.47-0.13-12.7c0-0.71,0.01-1.47,0.25-2.13c0.13-0.35,0.75-0.74,1.15-0.74
            		c2.97,0.02,5.93,0.17,8.9,0.2c4.08,0.04,8.16,0.04,12.23-0.01c1.16-0.01,1.55,0.34,1.54,1.52c-0.04,30.84-0.04,61.69-0.05,92.53
            		c0,1.7-0.12,1.82-1.84,1.82c-6.78,0-13.56,0-20.34,0C79.23,170.95,78.63,170.88,78.16,170.85z M90.53,159.72
            		c0-24.6,0-49.16,0-73.72c-0.14-0.04-0.27-0.07-0.41-0.11c-0.25,0.54-0.63,1.07-0.71,1.63c-0.13,0.96-0.09,1.94-0.09,2.91
            		c0,20.36,0,40.72,0,61.09c0,2.27-0.01,4.55,0.06,6.82C89.4,158.99,89.3,159.94,90.53,159.72z"/>
        <path fill="#FEFEFF" d="M317.9,110.54c0.13-2.16,0.35-4.12,0.36-6.09c0.04-9.25,0.05-18.51,0-27.76c-0.01-1.26,0.32-1.64,1.66-1.63
            		c7.2,0.07,14.4,0.04,21.6,0.04c1.8,0,1.79,0.01,1.79,1.8c0,10.69-0.02,21.37,0.03,32.06c0.01,1.32-0.36,1.76-1.75,1.75
            		c-7.29-0.06-14.59-0.04-21.88-0.05C319.19,110.66,318.69,110.59,317.9,110.54z M329.75,86.24c0,4.6,0,9.03,0,13.65
            		c0.78-0.19,1.38-0.33,2.04-0.49c0-4.48,0-8.81,0-13.16C331.09,86.24,330.48,86.24,329.75,86.24z"/>
        <path fill="#EA0E76" d="M90.53,159.72c-1.24,0.21-1.13-0.73-1.15-1.38c-0.07-2.27-0.06-4.54-0.06-6.82c0-20.36,0-40.72,0-61.09
            		c0-0.97-0.04-1.95,0.09-2.91c0.08-0.57,0.47-1.09,0.71-1.63c0.14,0.04,0.27,0.07,0.41,0.11C90.53,110.56,90.53,135.12,90.53,159.72
            		z"/>
        <path fill="#EA0E76" d="M329.75,86.24c0.73,0,1.34,0,2.04,0c0,4.35,0,8.67,0,13.16c-0.66,0.16-1.27,0.3-2.04,0.49
        		C329.75,95.27,329.75,90.83,329.75,86.24z"/>
    </g>
</svg>
