<?xml
version="1.0" encoding="utf-8"?>
<!-- Generator: Adobe Illustrator 27.1.1, SVG Export Plug-In . SVG Version: 6.00 Build 0)  -->
<svg version="1.1" id="圖層_1" xmlns="http://www.w3.org/2000/svg" xmlns:xlink="http://www.w3.org/1999/xlink" x="0px" y="0px" viewBox="0 0 40 40" style="enable-background:new 0 0 40 40;" xml:space="preserve">
    <style type="text/css">
        .st0 {
            fill: #595F75;
        }
        .st1 {
            fill: #FDB945;
        }
        .st2 {
            fill: #7CC5BA;
        }
        .st3 {
            fill: #FD8245;
        }
        .st4 {
            fill: #FC8245;
        }
        .st5 {
            fill: #FCB845;
        }
        .st6 {
            fill: #4C7771;
        }
        .st7 {
            fill: #9B722A;
        }
        .st8 {
            fill: #9B502A;
        }
        .st9 {
            fill: #B0DCD5;
        }
        .st10 {
            fill: #FEB794;
        }
        .st11 {
            fill: #FED78F;
        }
        .st12 {
            fill: #FDDE95;
        }
        .st13 {
            fill: #8A4725;
        }
        .st14 {
            fill: #FDFDFD;
        }
        .st15 {
            fill: #825647;
        }
        .st16 {
            fill: #816B47;
        }
        .st17 {
            fill: #8A6524;
        }
        .st18 {
            fill: #626160;
        }
        .st19 {
            fill: #BB8A33;
        }
        .st20 {
            fill: #426A65;
        }
        .st21 {
            fill: #605F5F;
        }
        .st22 {
            fill: #83CFC4;
        }
        .st23 {
            fill: #565E62;
        }
        .st24 {
            fill: #BE6233;
        }
        .st25 {
            fill: #5C928A;
        }
    </style>
    <g>
        <path class="st0" d="M17.3,22.23c-1.41,0.85-2.76,1.64-4.1,2.47c-0.88,0.55-1.09,0.47-1.33-0.73c-0.96,0.88-1.66,1.83-1.81,3.05
            		c-0.23,1.93,0.07,2.36,1.81,3.3c0.32,0.18,0.61,0.38,0.34,0.91c-0.41,0.78-0.68,1.63-1,2.45c-0.25,0.65-0.71,0.77-1.26,0.44
            		C7.18,32.43,6.4,29.95,7.17,27c0.7-2.69,2.46-4.52,5.01-5.31c0-0.8,0-1.55,0-2.5c-0.44-0.27-1.13-0.65-1.78-1.07
            		c-2.62-1.7-4.03-5.28-2.88-8.46c0.48-1.33,1.36-2.27,2.55-2.93c0.55-0.31,1.08-0.14,1.34,0.48c0.22,0.52,0.38,1.07,0.6,1.6
            		c0.54,1.28,0.55,1.28-0.7,1.93c-0.68,0.36-1.39,1.72-1.25,2.55c0.23,1.31,0.79,2.45,1.81,3.38c0.26-0.88,0.73-0.95,1.42-0.51
            		c1.2,0.77,2.41,1.5,3.63,2.24c0.1,0.06,0.25,0.04,0.5,0.07c0-1.16,0-2.28,0-3.4c0-2.13,0.01-4.27-0.01-6.4
            		c0-0.51,0.08-0.81,0.68-0.94c1.41-0.32,2.66-1.28,4.19-1.1c1.98,0.23,3.96,0.51,5.95,0.74c1.36,0.16,2.72,0.32,4.08,0.41
            		c1.06,0.07,1.35,0.31,1.35,1.4c0,1.81,0.15,3.64-0.05,5.43c-0.14,1.27,0.11,2.48,0.06,3.73c-0.05,1.29,0.11,2.6-0.04,3.88
            		c-0.16,1.39,0.04,2.74,0.03,4.11c-0.01,1.42-0.08,2.85,0.02,4.27c0.08,1.08-0.42,1.64-1.3,2.04c-0.46,0.21-0.97,0.33-1.38,0.61
            		c-1.29,0.87-2.67,0.83-4.12,0.57c-2.77-0.49-5.55-0.91-8.33-1.36c-0.73-0.12-1.21-0.34-1.16-1.26c0.11-2.34,0.15-4.69,0.17-7.03
            		C17.58,23.55,17.41,22.96,17.3,22.23z M32.74,24.67c-0.45-0.08-0.9-0.16-1.35-0.24c0.18-0.12,0.34-0.3,0.53-0.36
            		c0.95-0.27,1.28-0.82,1.22-1.85c-0.1-1.83-0.04-3.68-0.04-5.51c-0.06-0.06-0.11-0.13-0.17-0.19c-0.07,0-0.14,0.01-0.22,0.01
            		c-0.44-0.08-0.89-0.16-1.33-0.25c0.38-0.21,0.81-0.38,1.14-0.66c0.26-0.22,0.57-0.57,0.58-0.87c0.05-1.9,0.03-3.81,0.02-5.71
            		c0-0.17-0.14-0.34-0.21-0.5c-1.24-0.19-2.48-0.41-3.72-0.56c-1.97-0.23-3.97-0.26-5.9-0.65c-1.86-0.37-3.36,0.32-4.92,1.02
            		c-0.12,0.34-0.33,0.68-0.34,1.02C17.98,10.78,18,12.19,18,13.61c0,0.63,0,1.25,0,1.83c0.77,0.12,1.36,0.21,1.96,0.3
            		c-0.58,0.26-1.15,0.52-1.73,0.77c-0.07,0.11-0.19,0.22-0.19,0.32c-0.01,2.27-0.01,4.54-0.01,6.76c0.63,0.11,1.16,0.21,1.69,0.31
            		c-0.42,0.18-0.85,0.34-1.26,0.55c-0.12,0.06-0.17,0.25-0.26,0.38c-0.06,0.07-0.17,0.14-0.17,0.21c-0.02,2.07-0.04,4.13,0,6.2
            		c0,0.2,0.41,0.53,0.67,0.58c1.47,0.28,2.94,0.52,4.42,0.73c2.05,0.29,4.1,0.55,6.15,0.82c0.12-0.05,0.25-0.11,0.37-0.16
            		c0.95-0.45,1.94-0.85,2.85-1.37c0.3-0.17,0.59-0.66,0.6-1.01c0.05-1.92,0.02-3.85,0.01-5.77C32.98,24.93,32.86,24.8,32.74,24.67z
            		 M12.74,20.4c0.09,0.51,0.18,1.02,0.27,1.57c-0.07,0.04-0.17,0.12-0.29,0.15c-2.39,0.7-3.94,2.29-4.84,4.57
            		C6.9,29.17,7.77,32,9.85,33.33c0.62,0.39,0.85,0.21,1.06-0.35c0.26-0.68,0.52-1.35,0.79-2.02c-2.02-1.11-2.64-2.17-2.2-4.14
            		c0.38-1.71,1.72-3.67,3.53-4.02c-0.15,0.47-0.3,0.93-0.52,1.6c1.54-0.93,2.88-1.73,4.3-2.58c-0.31-0.12-0.52-0.19-0.72-0.27
            		c-1.03-0.38-2.07-0.76-3.1-1.13c1.27-0.44,2.55-0.87,3.97-1.36c-1.5-0.91-2.85-1.74-4.35-2.65c0.24,0.71,0.42,1.2,0.64,1.84
            		c-2.25-1.12-3.57-2.81-3.72-5.11c-0.09-1.46,0.7-2.7,2.36-3.18c-0.4-0.97-0.77-1.87-1.18-2.86c-1.76,0.86-2.8,2.19-2.95,3.96
            		c-0.34,4,1.73,6.49,5.37,7.83C12.99,19.42,12.86,19.91,12.74,20.4z M17.37,19.56c-0.86,0.27-1.66,0.51-2.46,0.75
            		c-0.01,0.07-0.01,0.14-0.02,0.22c0.8,0.23,1.61,0.46,2.48,0.71C17.37,20.6,17.37,20.12,17.37,19.56z"/>
        <path class="st1" d="M19.73,23.9c-0.53-0.1-1.06-0.19-1.69-0.31c0-2.23,0-4.5,0.01-6.76c0-0.11,0.12-0.22,0.19-0.32
            		c1.9,0.26,3.79,0.52,5.69,0.77c1.52,0.2,3.04,0.38,4.56,0.57c0.27,0.02,0.55,0.04,0.82,0.06c0,2.25,0.01,4.49,0.01,6.74
            		c-0.02,0.19-0.03,0.39-0.05,0.58c-1.39-0.17-2.78-0.32-4.17-0.51C23.31,24.46,21.52,24.18,19.73,23.9z M20.06,17.83
            		c-0.47-0.27-0.77-0.56-0.93-0.5c-0.29,0.11-0.5,0.44-0.74,0.67c0.22,0.21,0.48,0.62,0.66,0.59C19.35,18.54,19.59,18.2,20.06,17.83z
            		"/>
        <path class="st2" d="M19.97,15.73c-0.6-0.09-1.2-0.18-1.96-0.3c0-0.58,0-1.21,0-1.83c0-1.41-0.02-2.83,0.02-4.24
            		c0.01-0.34,0.22-0.68,0.34-1.02c0.88,0.14,1.75,0.3,2.63,0.41c2.69,0.33,5.38,0.65,8.07,0.97c0.07,0.06,0.14,0.13,0.21,0.19
            		c0,2.26,0,4.52,0,6.78c-0.07,0.19-0.14,0.38-0.21,0.58c-1.13-0.19-2.25-0.39-3.38-0.58C23.78,16.37,21.87,16.05,19.97,15.73z
            		 M18.92,10.62c0.13-0.01,0.26-0.01,0.39-0.02c0.14-0.28,0.42-0.58,0.39-0.85c-0.02-0.22-0.45-0.61-0.6-0.57
            		c-0.28,0.08-0.63,0.39-0.67,0.65C18.4,10.07,18.74,10.36,18.92,10.62z"/>
        <path class="st3" d="M29.28,33.37c-2.05-0.27-4.1-0.53-6.15-0.82c-1.48-0.21-2.96-0.45-4.42-0.73c-0.26-0.05-0.67-0.37-0.67-0.58
            		c-0.04-2.06-0.02-4.13,0-6.2c0-0.07,0.11-0.14,0.17-0.21c0.89,0.07,1.79,0.13,2.68,0.22c1.53,0.16,3.05,0.37,4.58,0.51
            		c1.26,0.12,2.53,0.19,3.79,0.28c0.01,0.32,0.03,0.64,0.04,0.96C29.3,28.99,29.29,31.18,29.28,33.37z M18.76,26.85
            		c0.13,0.01,0.26,0.03,0.39,0.04c0.2-0.37,0.45-0.72,0.56-1.11c0.03-0.12-0.34-0.51-0.51-0.5c-0.31,0.02-0.87,0.27-0.86,0.38
            		C18.38,26.06,18.6,26.45,18.76,26.85z"/>
        <path class="st4" d="M12.99,20.41c1.03,0.38,2.07,0.76,3.1,1.13c0.21,0.08,0.42,0.15,0.72,0.27c-1.41,0.85-2.75,1.66-4.3,2.58
            		c0.22-0.67,0.37-1.13,0.52-1.6c-1.81,0.35-3.15,2.31-3.53,4.02c-0.44,1.97,0.17,3.02,2.2,4.14c-0.26,0.67-0.53,1.34-0.79,2.02
            		c-0.21,0.56-0.45,0.74-1.06,0.35C7.77,32,6.9,29.17,7.88,26.7c0.9-2.28,2.45-3.87,4.84-4.57c0.12-0.03,0.22-0.11,0.29-0.15
            		c-0.1-0.56-0.18-1.06-0.27-1.57C12.82,20.41,12.9,20.41,12.99,20.41z"/>
        <path class="st5" d="M12.99,20.41c-0.08,0-0.16,0-0.25,0c0.12-0.49,0.25-0.99,0.38-1.53c-3.64-1.34-5.71-3.83-5.37-7.83
            		c0.15-1.77,1.19-3.1,2.95-3.96c0.41,0.99,0.78,1.89,1.18,2.86c-1.67,0.49-2.46,1.72-2.36,3.18c0.15,2.31,1.47,3.99,3.72,5.11
            		c-0.22-0.63-0.39-1.13-0.64-1.84c1.5,0.92,2.86,1.74,4.35,2.65C15.54,19.53,14.26,19.97,12.99,20.41z"/>
        <path class="st6" d="M32.91,8.54c0.07,0.17,0.21,0.34,0.21,0.5c0.02,1.9,0.04,3.81-0.02,5.71c-0.01,0.3-0.32,0.65-0.58,0.87
            		c-0.33,0.28-0.76,0.44-1.14,0.66c-0.52,0.2-1.04,0.39-1.56,0.59c-0.06-0.31-0.18-0.61-0.18-0.92c-0.01-2.11,0-4.21,0.01-6.32
            		C30.75,9.27,31.83,8.9,32.91,8.54z"/>
        <path class="st7" d="M32.72,16.53c0.07,0,0.14-0.01,0.22-0.01c0.06,0.06,0.11,0.13,0.17,0.19c0,1.84-0.06,3.68,0.04,5.51
            		c0.06,1.02-0.28,1.58-1.22,1.85c-0.2,0.06-0.36,0.24-0.53,0.36c-0.48,0.15-0.96,0.31-1.44,0.46c-0.1-0.31-0.29-0.62-0.29-0.94
            		c-0.03-2.02-0.01-4.05-0.02-6.07C30.67,17.43,31.7,16.98,32.72,16.53z"/>
        <path class="st8" d="M33.11,25.05c0,1.92,0.04,3.85-0.01,5.77c-0.01,0.35-0.3,0.84-0.6,1.01c-0.91,0.52-1.89,0.92-2.85,1.37
            		c0-2.4-0.01-4.8-0.01-7.2l0,0c0.13-0.06,0.26-0.11,0.39-0.17c0.9-0.34,1.81-0.67,2.71-1.01C32.86,24.91,32.98,24.98,33.11,25.05z"/>
        <path class="st9" d="M32.91,8.54c-1.08,0.37-2.17,0.73-3.25,1.1c-0.12,0.04-0.24,0.07-0.36,0.11c-0.08-0.01-0.16-0.01-0.24-0.02
            		c-2.69-0.32-5.38-0.63-8.07-0.97c-0.88-0.11-1.75-0.27-2.63-0.41c1.56-0.7,3.07-1.39,4.92-1.02c1.93,0.39,3.94,0.42,5.9,0.65
            		C30.43,8.12,31.67,8.35,32.91,8.54z"/>
        <path class="st10" d="M32.74,24.84c-0.9,0.34-1.81,0.67-2.71,1.01c-0.13,0-0.25,0-0.38,0c-0.13,0-0.25,0-0.38,0
            		c-1.26-0.09-2.53-0.15-3.79-0.28c-1.53-0.15-3.05-0.35-4.58-0.51c-0.89-0.09-1.79-0.15-2.68-0.22c0.08-0.13,0.14-0.32,0.26-0.38
            		c0.41-0.21,0.84-0.37,1.26-0.55c1.79,0.27,3.58,0.56,5.37,0.81c1.39,0.19,2.78,0.34,4.17,0.51c0.06,0,0.13,0,0.19-0.01
            		c0.16-0.11,0.33-0.22,0.49-0.33c0.48-0.15,0.96-0.31,1.44-0.46c0.45,0.08,0.9,0.16,1.35,0.24C32.75,24.73,32.75,24.78,32.74,24.84z
            		"/>
        <path class="st11" d="M19.97,15.73c1.91,0.32,3.82,0.63,5.72,0.95c1.13,0.19,2.25,0.39,3.38,0.58c0,0,0.09,0.01,0.09,0.01l0.1-0.01
            		c-0.26,0.19-0.51,0.38-0.77,0.57c-1.52-0.19-3.04-0.37-4.56-0.57c-1.9-0.25-3.79-0.51-5.69-0.77
            		C18.81,16.25,19.39,15.99,19.97,15.73z"/>
        <path class="st12" d="M28.49,17.84c0.26-0.19,0.51-0.38,0.77-0.57c0.01-0.05,0.02-0.1,0.03-0.15c0.06-0.01,0.11-0.02,0.17-0.04
            		c0.13-0.07,0.26-0.13,0.38-0.2c0.52-0.2,1.04-0.39,1.56-0.59c0.44,0.08,0.89,0.16,1.33,0.25c-1.03,0.45-2.05,0.9-3.08,1.35
            		c-0.11,0.01-0.23,0.01-0.34,0.02C29.03,17.88,28.76,17.86,28.49,17.84z"/>
        <path class="st13" d="M29.64,26.01c0,2.4,0.01,4.8,0.01,7.2c-0.12,0.06-0.25,0.11-0.37,0.16c0.01-2.19,0.02-4.38,0.03-6.57
            		C29.42,26.54,29.53,26.27,29.64,26.01z"/>
        <path class="st14" d="M17.37,19.56c0,0.56,0,1.03,0,1.68c-0.87-0.25-1.67-0.48-2.48-0.71c0.01-0.07,0.01-0.14,0.02-0.22
            		C15.71,20.07,16.51,19.83,17.37,19.56z"/>
        <path class="st15" d="M32.74,24.84c0.01-0.06,0.01-0.11,0-0.17c0.12,0.13,0.25,0.26,0.37,0.38C32.98,24.98,32.86,24.91,32.74,24.84
            		z"/>
        <path class="st16" d="M33.11,16.71c-0.06-0.06-0.11-0.13-0.17-0.19C33,16.58,33.05,16.65,33.11,16.71z"/>
        <path class="st17" d="M29.3,17.9c0.11-0.01,0.23-0.01,0.34-0.02c0,2.02-0.01,4.05,0.02,6.07c0,0.31,0.19,0.62,0.29,0.94
            		c-0.16,0.11-0.33,0.22-0.49,0.33c-0.05-0.19-0.1-0.38-0.14-0.58C29.31,22.4,29.31,20.15,29.3,17.9z"/>
        <path class="st18" d="M20.06,17.83c-0.47,0.38-0.71,0.71-1.01,0.76c-0.18,0.03-0.44-0.38-0.66-0.59c0.24-0.24,0.45-0.56,0.74-0.67
            		C19.29,17.26,19.59,17.56,20.06,17.83z"/>
        <path class="st19" d="M29.31,24.64c0.05,0.19,0.1,0.38,0.14,0.58c-0.06,0-0.13,0-0.19,0.01C29.28,25.03,29.3,24.84,29.31,24.64z"/>
        <path class="st20" d="M29.83,16.88c-0.13,0.07-0.26,0.13-0.38,0.2c-0.05-0.06-0.1-0.13-0.15-0.19c0-0.06-0.01-0.13-0.03-0.19
            		c0-2.26,0-4.52,0-6.78c0.01-0.06,0.02-0.11,0.03-0.17c0.12-0.03,0.24-0.07,0.36-0.11c-0.01,2.11-0.02,4.21-0.01,6.32
            		C29.66,16.26,29.77,16.57,29.83,16.88z"/>
        <path class="st21" d="M18.92,10.62c-0.18-0.26-0.52-0.55-0.49-0.79c0.04-0.26,0.39-0.58,0.67-0.65c0.15-0.04,0.58,0.35,0.6,0.57
            		c0.03,0.27-0.25,0.57-0.39,0.85C19.18,10.61,19.05,10.61,18.92,10.62z"/>
        <path class="st22" d="M29.27,16.69c0.02,0.06,0.03,0.13,0.03,0.19c-0.01,0.08-0.01,0.16-0.02,0.24c-0.01,0.05-0.02,0.1-0.03,0.15
            		c0,0-0.1,0.01-0.1,0.01s-0.09-0.01-0.09-0.01C29.13,17.08,29.2,16.88,29.27,16.69z"/>
        <path class="st22" d="M29.3,9.74c-0.01,0.06-0.02,0.12-0.03,0.17c-0.07-0.06-0.14-0.13-0.21-0.19C29.14,9.73,29.22,9.74,29.3,9.74z
            		"/>
        <path class="st23" d="M18.76,26.85c-0.16-0.4-0.38-0.79-0.43-1.2c-0.01-0.11,0.55-0.36,0.86-0.38c0.17-0.01,0.55,0.38,0.51,0.5
            		c-0.11,0.39-0.36,0.74-0.56,1.11C19.02,26.87,18.89,26.86,18.76,26.85z"/>
        <path class="st24" d="M29.64,26.01c-0.11,0.27-0.22,0.53-0.33,0.8c-0.01-0.32-0.03-0.64-0.04-0.96c0.13,0,0.25,0,0.38,0
            		C29.64,25.9,29.64,25.95,29.64,26.01L29.64,26.01z"/>
        <path class="st13" d="M29.64,26.01c0-0.06,0-0.11,0.01-0.17c0.13,0,0.25,0,0.38,0C29.9,25.9,29.77,25.95,29.64,26.01z"/>
        <path class="st25" d="M29.28,17.12c0.01-0.08,0.01-0.16,0.02-0.24c0.05,0.06,0.1,0.13,0.15,0.19
        		C29.39,17.1,29.34,17.11,29.28,17.12z"/>
    </g>
    <g></g>
    <g></g>
    <g></g>
    <g></g>
    <g></g>
    <g></g>
</svg>
